<svg width="80" height="80" viewBox="0 0 80 80" fill="none" xmlns="http://www.w3.org/2000/svg">
<g clip-path="url(#clip0_84_1170)">
<path d="M77.5002 47.9375V50.5625C77.5002 54.9875 75.6502 59.1875 72.4377 62.2125L67.5752 61.475C69.1377 58.9 70.0002 55.9 70.0002 52.8V48.2C70.0002 45.6125 69.4002 43.1 68.3002 40.85C67.4877 39.175 66.3752 37.65 65.0127 36.3375L65.0252 36.325C65.7252 35.05 67.0627 34.25 68.5502 34.25C69.4127 34.25 70.2502 34.525 70.9502 35.0375C75.0752 38.0875 77.5002 42.8625 77.5002 47.9375Z" fill="#FCD770"/>
<path d="M63.55 35.05C64.075 35.45 64.575 35.875 65.0125 36.3375C66.375 37.65 67.4875 39.175 68.3 40.85C69.4 43.1 70 45.6125 70 48.2V52.8C70 55.9 69.1375 58.9 67.575 61.475L55.85 59.675V59.6625C55.2875 57.5 55 55.2875 55 53.0375V47.9625C55 46.225 55.175 44.4875 55.5125 42.7875C56.125 42.925 56.7875 43 57.5 43C60.2625 43 62.5 41.875 62.5 40.5C62.5 39.6125 61.575 38.8375 60.1875 38.4L60.5625 34.3C60.7625 34.2625 60.975 34.25 61.1875 34.25C62.0375 34.25 62.875 34.5375 63.55 35.05Z" fill="#FCD770"/>
<path d="M48.4625 34.7875C49.125 35.1625 49.6625 35.7125 50.025 36.4V36.4125C46.8375 39.475 45 43.725 45 48.2V52.8C45 54.6375 45.3125 56.4375 45.9 58.1375L38.8875 57.0625C37.9875 55.0375 37.5 52.8375 37.5 50.5625V47.9375C37.5 47 37.5875 46.0625 37.75 45.15C37.8 44.8875 37.85 44.625 37.9125 44.3625C38.7625 40.675 40.9125 37.3625 44.05 35.0375C44.75 34.525 45.5875 34.25 46.45 34.25C47.175 34.25 47.8625 34.4375 48.4625 34.7875Z" fill="#FCD770"/>
<path d="M54.4375 34.275L54.8125 38.4C53.425 38.8375 52.5 39.6125 52.5 40.5C52.5 41.525 53.7375 42.4 55.5125 42.7875C55.175 44.4875 55 46.225 55 47.9625V53.0375C55 55.2875 55.2875 57.5 55.85 59.6625L48 58.4625L45.9 58.1375C45.3125 56.4375 45 54.6375 45 52.8V48.2C45 43.725 46.8375 39.475 50.025 36.4125V36.4C50.525 35.9125 51.05 35.4625 51.6125 35.05C52.3125 34.5375 53.1625 34.25 54.0375 34.25C54.175 34.25 54.3 34.2625 54.425 34.275H54.4375Z" fill="#FCD770"/>
<path d="M62.5 40.5C62.5 41.875 60.2625 43 57.5 43C56.7875 43 56.125 42.925 55.5125 42.7875C53.7375 42.4 52.5 41.525 52.5 40.5C52.5 39.6125 53.425 38.8375 54.8125 38.4L54.4375 34.275L53.7625 26.9125C53.75 26.8 53.75 26.7 53.75 26.5875C53.75 24.6 55.35 23 57.3375 23H57.6625C58.65 23 59.55 23.4 60.2 24.05C60.85 24.7 61.25 25.6 61.25 26.5875C61.25 26.7 61.25 26.8 61.2375 26.9125L60.5625 34.3L60.1875 38.4C61.575 38.8375 62.5 39.6125 62.5 40.5Z" fill="#CF9E76"/>
<path d="M29.8875 10.6625C30.325 10.5625 30.7875 10.5 31.25 10.5C33.2875 10.5 35.1125 11.475 36.25 13L36.225 13.125C35.825 13.0375 35.425 13 35 13C32.4125 13 30.2 14.5625 29.25 16.8C29.0875 16.7875 28.925 16.75 28.75 16.75C25.6125 16.75 23.0375 19.075 22.5875 22.0875C18.9375 23.1375 16.25 26.5 16.25 30.5C16.25 33.9125 18.2 36.85 21.05 38.3C20.3875 39.2875 20 40.475 20 41.75C20 43.975 21.175 45.9125 22.925 47.025C22.6625 47.7125 22.5 48.4625 22.5 49.25C22.5 52.7 25.3 55.5375 28.75 55.5375C28.425 55.5125 28.1125 55.5 27.8 55.5H27.5C25.0625 55.5 22.7875 56.2 20.8625 57.4125L17.5 48C14.05 48 11.25 45.2 11.25 41.75C11.25 40.9625 11.4125 40.2125 11.675 39.525C9.925 38.4125 8.75 36.475 8.75 34.25C8.75 32.975 9.1375 31.7875 9.8 30.8C6.95 29.35 5 26.4125 5 23C5 19 7.6875 15.6375 11.3375 14.5875C11.7875 11.575 14.3625 9.25 17.5 9.25C17.675 9.25 17.8375 9.2875 18 9.3C18.95 7.0625 21.1625 5.5 23.75 5.5C26.825 5.5 29.375 7.725 29.8875 10.6625Z" fill="#8CC152"/>
<path d="M46.95 28.625C48.0625 29.75 48.75 31.3 48.75 33C48.75 33.5875 48.6625 34.1625 48.5125 34.7L48.4625 34.7875C47.8625 34.4375 47.175 34.25 46.45 34.25C45.5875 34.25 44.75 34.525 44.05 35.0375C40.9125 37.3625 38.7625 40.675 37.9125 44.3625C37.85 44.625 37.8 44.8875 37.75 45.15C37.5875 46.0625 37.5 47 37.5 47.9375V50.5625C37.5 52.8375 37.9875 55.0375 38.8875 57.0625L29.7 55.65C29.375 55.6 29.0625 55.5625 28.75 55.5375C25.3 55.5375 22.5 52.7 22.5 49.25C22.5 48.4625 22.6625 47.7125 22.925 47.025C21.175 45.9125 20 43.975 20 41.75C20 40.475 20.3875 39.2875 21.05 38.3C18.2 36.85 16.25 33.9125 16.25 30.5C16.25 26.5 18.9375 23.1375 22.5875 22.0875C23.0375 19.075 25.6125 16.75 28.75 16.75C28.925 16.75 29.0875 16.7875 29.25 16.8C30.2 14.5625 32.4125 13 35 13C35.425 13 35.825 13.0375 36.225 13.125C38.7375 13.625 40.7 15.625 41.1375 18.1625C41.575 18.0625 42.0375 18 42.5 18C45.95 18 48.75 20.8 48.75 24.25C48.75 25.95 48.0625 27.5 46.95 28.625Z" fill="#B4DD7F"/>
<path d="M8.5 65.5H15.25C15.0875 66.3 15 67.1375 15 68C15 68.8625 15.0875 69.7 15.25 70.5H8.5H5C4.3125 70.5 3.6875 70.225 3.2375 69.7625C2.775 69.3125 2.5 68.6875 2.5 68C2.5 66.625 3.625 65.5 5 65.5H8.5Z" fill="#B4DD7F"/>
<path d="M8.9875 60.55L16.425 62.2125C15.8875 63.2375 15.4875 64.3375 15.25 65.5H8.5C7.2625 65.5 6.25 64.4875 6.25 63.25V62.75C6.25 61.5125 7.2625 60.5 8.5 60.5C8.6625 60.5 8.825 60.5125 8.9875 60.55Z" fill="#B4DD7F"/>
<path d="M16.425 73.7875L8.9875 75.45C8.825 75.4875 8.6625 75.5 8.5 75.5C7.2625 75.5 6.25 74.4875 6.25 73.25V72.75C6.25 71.5125 7.2625 70.5 8.5 70.5H15.25C15.4875 71.6625 15.8875 72.7625 16.425 73.7875Z" fill="#B4DD7F"/>
<path d="M76.1 64.2C75.2125 63.175 73.975 62.45 72.5625 62.2375L72.4375 62.2125L67.575 61.475L55.85 59.675V59.6625L48 58.4625L45.9 58.1375L38.8875 57.0625L29.7 55.65C29.375 55.6 29.0625 55.5625 28.75 55.5375C28.425 55.5125 28.1125 55.5 27.8 55.5H27.5C25.0625 55.5 22.7875 56.2 20.8625 57.4125C18.9875 58.5875 17.45 60.25 16.425 62.2125C15.8875 63.2375 15.4875 64.3375 15.25 65.5C15.0875 66.3 15 67.1375 15 68C15 68.8625 15.0875 69.7 15.25 70.5C15.4875 71.6625 15.8875 72.7625 16.425 73.7875C17.0125 74.9125 17.775 75.95 18.6625 76.8375C20.925 79.1 24.05 80.5 27.5 80.5H27.8C28.425 80.5 29.0625 80.45 29.7 80.35L48 77.5375L72.5625 73.7625C75.4 73.325 77.5 70.875 77.5 68C77.5 66.5625 76.975 65.225 76.1 64.2Z" fill="#FF826E"/>
<path d="M78.75 47.9363C78.75 42.4938 76.1113 37.2962 71.6913 34.0337C70.79 33.3662 69.6725 33 68.5462 33C67.1363 33 65.815 33.5638 64.845 34.5225C64.6637 34.3713 64.4988 34.205 64.3113 34.0613C63.6175 33.5313 62.785 33.2162 61.93 33.0863L62.4813 27.025C62.4938 26.88 62.5 26.7338 62.5 26.5875C62.5 23.92 60.33 21.75 57.6625 21.75H57.3375C54.67 21.75 52.5 23.92 52.5 26.5875C52.5 26.7338 52.5062 26.88 52.52 27.0263L53.0737 33.1138C52.2812 33.2638 51.515 33.57 50.8675 34.0525C50.6437 34.22 50.445 34.4125 50.23 34.5887C50.1187 34.4737 50.0012 34.3663 49.88 34.2625C49.9512 33.8463 50 33.425 50 33C50 31.4125 49.505 29.8937 48.5875 28.625C49.505 27.3563 50 25.8388 50 24.25C50 19.97 46.3787 16.5012 42.0638 16.7638C41.2612 14.4637 39.39 12.73 37.09 12.0613C35.5675 10.1625 33.2725 9.10875 30.8137 9.26375C29.7787 6.2975 26.9762 4.25 23.75 4.25C21.0438 4.25 18.58 5.6975 17.2525 8.00375C13.9425 8.115 11.0812 10.4513 10.2612 13.6337C6.39125 15.0775 3.75 18.8237 3.75 23C3.75 26.3487 5.3975 29.41 8.12375 31.26C7.7125 32.1987 7.5 33.2138 7.5 34.25C7.5 36.5 8.5 38.5913 10.2163 40.0075C10.0725 40.5875 10 41.1712 10 41.75C10 45.58 12.8875 48.75 16.6 49.1963L19.365 56.94C17.9487 57.9837 16.7425 59.29 15.8138 60.79L9.265 59.335C9.01625 59.2775 8.76 59.25 8.5025 59.25C6.57125 59.25 5 60.8212 5 62.7525V63.2475C5 63.5975 5.0675 63.93 5.16375 64.25H5C2.9325 64.25 1.25 65.9325 1.25 68C1.25 70.0675 2.9325 71.75 5 71.75H5.16375C5.0675 72.07 5 72.4025 5 72.7525V73.2475C5 75.1787 6.57125 76.75 8.5025 76.75C8.76 76.75 9.01625 76.7225 9.2625 76.6662L15.8138 75.21C18.24 79.1275 22.5637 81.75 27.5 81.75H27.7938C28.4888 81.75 29.1925 81.6963 29.8837 81.59L72.7475 74.9962C76.225 74.46 78.75 71.5188 78.75 68C78.75 65.1862 77.1212 62.765 74.6963 61.6237C77.2862 58.53 78.75 54.605 78.75 50.5637V47.9363ZM62.7913 36.0475C66.5225 38.9 68.75 43.4438 68.75 48.205V52.7963C68.75 55.3588 68.1113 57.8675 66.9075 60.1063L56.8838 58.5638C56.4712 56.75 56.25 54.8975 56.25 53.0375V47.9625C56.25 46.7025 56.3763 45.4438 56.5675 44.1963C56.8738 44.2225 57.1787 44.25 57.5 44.25C61.0638 44.25 63.75 42.6375 63.75 40.5C63.75 39.32 62.9338 38.2725 61.52 37.585L61.7038 35.5625C62.0938 35.6412 62.4688 35.7987 62.7913 36.0475ZM57.3375 24.25H57.6637C58.9525 24.25 60.0013 25.2988 60.0013 26.5875C60.0013 26.6588 59.9987 26.73 59.9912 26.8L58.8562 39.2838L59.81 39.59C60.905 39.94 61.25 40.4012 61.25 40.5C61.25 40.8112 59.92 41.75 57.5 41.75C55.08 41.75 53.75 40.8112 53.75 40.5C53.75 40.4012 54.095 39.94 55.19 39.5887L56.1438 39.2825L55.0088 26.8C55.0025 26.7288 55 26.6575 55 26.5875C55 25.2988 56.0487 24.25 57.3375 24.25ZM53.3 35.6038L53.48 37.585C52.0662 38.2725 51.25 39.32 51.25 40.5C51.25 41.8775 52.3738 43.0287 54.12 43.6787C53.8963 45.0975 53.75 46.53 53.75 47.9625V53.0375C53.75 54.755 53.915 56.47 54.235 58.1562L46.8662 57.0225C46.465 55.6487 46.25 54.2325 46.25 52.795V48.2037C46.25 43.45 48.535 38.9075 52.3625 36.055C52.6413 35.8475 52.9625 35.695 53.3 35.6038ZM39.7913 55.9338C39.1125 54.2163 38.75 52.4175 38.75 50.5637V47.935C38.75 43.2825 41.01 38.8375 44.7937 36.0425C45.2687 35.6925 45.8587 35.5 46.4537 35.5C47.2087 35.5 47.9037 35.8037 48.4125 36.3125C45.465 39.5425 43.75 43.785 43.75 48.205V52.7963C43.75 54.085 43.9038 55.36 44.1825 56.61L39.7913 55.9338ZM39.9087 18.3762L40.1363 19.6625L41.4113 19.3787C41.7988 19.2925 42.155 19.25 42.5 19.25C45.2575 19.25 47.5 21.4925 47.5 24.25C47.5 25.5637 46.99 26.8062 46.065 27.7487L45.205 28.625L46.065 29.5013C46.99 30.4438 47.5 31.6863 47.5 33C47.5 33.0375 47.4925 33.075 47.4925 33.1138C47.1537 33.0462 46.8087 33 46.4537 33C45.3275 33 44.21 33.3663 43.3088 34.0325C41.0337 35.7113 39.2425 37.9075 38.0275 40.3813C37.5538 38.9062 37.0563 37.4937 36.5438 36.1525C37.7 30.045 41.9888 26.51 42.0325 26.4737L41.25 25.5L40.4688 24.5238C40.295 24.6625 36.9137 27.4237 35.015 32.405C32.4137 26.4325 29.9587 22.5688 29.8013 22.3237L27.6975 23.6763C27.7313 23.7275 29.6375 26.7262 31.8563 31.5C28.1175 30.0925 23.8687 30.4812 23.625 30.5062L23.8738 32.9938C25.7538 32.805 31.0788 32.8962 33.5662 35.435C34.4425 37.5887 35.3062 39.95 36.0687 42.48C32.2687 40.5312 27.735 40.5 27.5 40.5V43C27.5588 43 33.1238 43.0375 36.4175 45.6562C36.315 46.4087 36.25 47.1688 36.25 47.9363V50.565C36.25 52.2537 36.51 53.905 36.9925 55.505L29.8837 54.4113C29.5087 54.3538 29.13 54.315 28.75 54.2875C25.9925 54.2875 23.75 52.0275 23.75 49.2513C23.75 48.6688 23.8662 48.0712 24.0938 47.4725L24.4587 46.5163L23.5925 45.9688C22.1263 45.0412 21.25 43.465 21.25 41.75C21.25 40.7663 21.5387 39.8125 22.085 38.99L22.8638 37.82L21.6112 37.1838C19.075 35.8938 17.5 33.3337 17.5 30.5C17.5 27.1737 19.735 24.2113 22.9363 23.295L23.7125 23.0725L23.8288 22.2738C24.185 19.8375 26.3013 18 28.75 18C28.7962 18 28.8412 18.01 28.8862 18.0162C28.9737 18.0287 29.0625 18.04 29.1512 18.0462L30.0475 18.1188L30.4 17.2912C31.1887 15.4437 32.9937 14.25 35 14.25C37.4225 14.25 39.4863 15.985 39.9087 18.3762ZM18.3813 46.75H17.5C14.7425 46.75 12.5 44.5075 12.5 41.75C12.5 41.1662 12.6162 40.5687 12.8438 39.9725L13.21 39.0163L12.3438 38.4688C10.8763 37.5412 10 35.965 10 34.25C10 33.2663 10.2888 32.3125 10.835 31.49L11.6138 30.32L10.3612 29.6838C7.825 28.3938 6.25 25.8337 6.25 23C6.25 19.6737 8.485 16.7113 11.685 15.795L12.4613 15.5725L12.5775 14.7737C12.935 12.3375 15.0513 10.5 17.5 10.5C17.5475 10.5 17.5938 10.51 17.64 10.5163C17.725 10.5275 17.81 10.5388 17.8975 10.5463L18.7975 10.6213L19.1513 9.79C19.9387 7.94375 21.7437 6.75 23.75 6.75C26.1725 6.75 28.2362 8.485 28.6588 10.8763L28.8862 12.1625L30.1612 11.8788C30.5487 11.7925 30.905 11.75 31.25 11.75C31.825 11.75 32.3713 11.8763 32.8938 12.0588C31.0563 12.5963 29.4737 13.8162 28.5025 15.5037C25.1925 15.615 22.3312 17.9513 21.5112 21.1338C17.6412 22.5775 15 26.3237 15 30.5C15 33.8487 16.6475 36.91 19.3737 38.76C18.9625 39.6987 18.75 40.7137 18.75 41.75C18.75 44 19.75 46.0912 21.4663 47.5087C21.3225 48.0887 21.25 48.6712 21.25 49.25C21.25 51.4463 22.195 53.42 23.6912 54.7975C22.9487 55.0125 22.235 55.2912 21.55 55.6225L18.3813 46.75ZM7.5 63.2475V62.7525C7.5 62.125 8.1075 61.6413 8.72125 61.7738L14.67 63.0962C14.525 63.4738 14.395 63.8575 14.2838 64.25H8.5025C7.95 64.25 7.5 63.8 7.5 63.2475ZM3.75 68C3.75 67.3112 4.31125 66.75 5 66.75H8.5025H13.8125C13.7762 67.1625 13.75 67.5775 13.75 68C13.75 68.4225 13.7762 68.8375 13.8137 69.25H8.5025H5C4.31125 69.25 3.75 68.6888 3.75 68ZM8.71875 74.2262C8.12625 74.3538 7.5 73.8737 7.5 73.2475V72.7525C7.5 72.2 7.95 71.75 8.5025 71.75H14.2825C14.3937 72.1425 14.525 72.5263 14.6687 72.9037L8.71875 74.2262ZM76.25 68C76.25 70.2763 74.6175 72.1787 72.3688 72.525L29.5062 79.1188C28.9387 79.2063 28.3625 79.25 27.7938 79.25H27.5C21.2975 79.25 16.25 74.2025 16.25 68C16.25 61.7975 21.2975 56.75 27.5 56.75H27.7938C28.3625 56.75 28.9387 56.7938 29.505 56.88L72.3675 63.4738C74.6175 63.8213 76.25 65.7238 76.25 68ZM76.25 50.5637C76.25 54.4087 74.6937 58.1287 71.9863 60.8862L69.5025 60.5037C70.6438 58.1062 71.25 55.4775 71.25 52.795V48.2037C71.25 43.7612 69.5575 39.4975 66.65 36.2625C67.155 35.7863 67.825 35.5 68.5462 35.5C69.1425 35.5 69.7313 35.6925 70.2063 36.045C73.99 38.8375 76.25 43.2838 76.25 47.9363V50.5637Z" fill="#1A1A1A"/>
<path d="M26.25 61.75H28.75V74.25H26.25V61.75Z" fill="#1A1A1A"/>
<path d="M36.25 61.75H38.75V74.25H36.25V61.75Z" fill="#1A1A1A"/>
<path d="M46.25 61.75H48.75V74.25H46.25V61.75Z" fill="#1A1A1A"/>
<path d="M56.25 64.25H58.75V71.75H56.25V64.25Z" fill="#1A1A1A"/>
<path d="M66.25 65.5H68.75V70.5H66.25V65.5Z" fill="#1A1A1A"/>
</g>
<defs>
<clipPath id="clip0_84_1170">
<rect width="80" height="80" fill="white"/>
</clipPath>
</defs>
</svg>
